<svg id="visual" viewBox="0 0 900 600" width="900" height="600" xmlns="http://www.w3.org/2000/svg" xmlns:xlink="http://www.w3.org/1999/xlink" version="1.1"><path d="M0 139L13.7 133C27.3 127 54.7 115 82 106C109.3 97 136.7 91 163.8 94C191 97 218 109 245.2 113C272.3 117 299.7 113 327 108C354.3 103 381.7 97 409 108C436.3 119 463.7 147 491 152C518.3 157 545.7 139 573 129C600.3 119 627.7 117 654.8 106C682 95 709 75 736.2 69C763.3 63 790.7 71 818 72C845.3 73 872.7 67 886.3 64L900 61L900 0L886.3 0C872.7 0 845.3 0 818 0C790.7 0 763.3 0 736.2 0C709 0 682 0 654.8 0C627.7 0 600.3 0 573 0C545.7 0 518.3 0 491 0C463.7 0 436.3 0 409 0C381.7 0 354.3 0 327 0C299.7 0 272.3 0 245.2 0C218 0 191 0 163.8 0C136.7 0 109.3 0 82 0C54.7 0 27.3 0 13.7 0L0 0Z" fill="#6198ff"></path><path d="M0 223L13.7 218C27.3 213 54.7 203 82 188C109.3 173 136.7 153 163.8 158C191 163 218 193 245.2 208C272.3 223 299.7 223 327 212C354.3 201 381.7 179 409 179C436.3 179 463.7 201 491 208C518.3 215 545.7 207 573 196C600.3 185 627.7 171 654.8 166C682 161 709 165 736.2 169C763.3 173 790.7 177 818 179C845.3 181 872.7 181 886.3 181L900 181L900 59L886.3 62C872.7 65 845.3 71 818 70C790.7 69 763.3 61 736.2 67C709 73 682 93 654.8 104C627.7 115 600.3 117 573 127C545.7 137 518.3 155 491 150C463.7 145 436.3 117 409 106C381.7 95 354.3 101 327 106C299.7 111 272.3 115 245.2 111C218 107 191 95 163.8 92C136.7 89 109.3 95 82 104C54.7 113 27.3 125 13.7 131L0 137Z" fill="#3c80ff"></path><path d="M0 271L13.7 264C27.3 257 54.7 243 82 235C109.3 227 136.7 225 163.8 236C191 247 218 271 245.2 282C272.3 293 299.7 291 327 283C354.3 275 381.7 261 409 258C436.3 255 463.7 263 491 267C518.3 271 545.7 271 573 269C600.3 267 627.7 263 654.8 253C682 243 709 227 736.2 229C763.3 231 790.7 251 818 262C845.3 273 872.7 275 886.3 276L900 277L900 179L886.3 179C872.7 179 845.3 179 818 177C790.7 175 763.3 171 736.2 167C709 163 682 159 654.8 164C627.7 169 600.3 183 573 194C545.7 205 518.3 213 491 206C463.7 199 436.3 177 409 177C381.7 177 354.3 199 327 210C299.7 221 272.3 221 245.2 206C218 191 191 161 163.8 156C136.7 151 109.3 171 82 186C54.7 201 27.3 211 13.7 216L0 221Z" fill="#0066ff"></path><path d="M0 439L13.7 429C27.3 419 54.7 399 82 379C109.3 359 136.7 339 163.8 356C191 373 218 427 245.2 452C272.3 477 299.7 473 327 461C354.3 449 381.7 429 409 417C436.3 405 463.7 401 491 418C518.3 435 545.7 473 573 468C600.3 463 627.7 415 654.8 403C682 391 709 415 736.2 424C763.3 433 790.7 427 818 413C845.3 399 872.7 377 886.3 366L900 355L900 275L886.3 274C872.7 273 845.3 271 818 260C790.7 249 763.3 229 736.2 227C709 225 682 241 654.8 251C627.7 261 600.3 265 573 267C545.7 269 518.3 269 491 265C463.7 261 436.3 253 409 256C381.7 259 354.3 273 327 281C299.7 289 272.3 291 245.2 280C218 269 191 245 163.8 234C136.7 223 109.3 225 82 233C54.7 241 27.3 255 13.7 262L0 269Z" fill="#0059dd"></path><path d="M0 601L13.7 601C27.3 601 54.7 601 82 601C109.3 601 136.7 601 163.8 601C191 601 218 601 245.2 601C272.3 601 299.7 601 327 601C354.3 601 381.7 601 409 601C436.3 601 463.7 601 491 601C518.3 601 545.7 601 573 601C600.3 601 627.7 601 654.8 601C682 601 709 601 736.2 601C763.3 601 790.7 601 818 601C845.3 601 872.7 601 886.3 601L900 601L900 353L886.3 364C872.7 375 845.3 397 818 411C790.7 425 763.3 431 736.2 422C709 413 682 389 654.8 401C627.7 413 600.3 461 573 466C545.7 471 518.3 433 491 416C463.7 399 436.3 403 409 415C381.7 427 354.3 447 327 459C299.7 471 272.3 475 245.2 450C218 425 191 371 163.8 354C136.7 337 109.3 357 82 377C54.7 397 27.3 417 13.7 427L0 437Z" fill="#004cbb"></path></svg>