<svg id="visual" viewBox="0 0 900 600" width="900" height="600" xmlns="http://www.w3.org/2000/svg" xmlns:xlink="http://www.w3.org/1999/xlink" version="1.1"><g stroke-width="1" stroke-linejoin="bevel"><path d="M436 318L435 387L467 364Z" fill="#19435d" stroke="#19435d"></path><path d="M467 364L515 260L436 318Z" fill="#15384f" stroke="#15384f"></path><path d="M493 509L567 404L467 364Z" fill="#1d4e6b" stroke="#1d4e6b"></path><path d="M467 364L567 404L515 260Z" fill="#15384f" stroke="#15384f"></path><path d="M266 434L381 488L435 387Z" fill="#277297" stroke="#277297"></path><path d="M435 387L493 509L467 364Z" fill="#0c2435" stroke="#0c2435"></path><path d="M391 177L288 274L436 318Z" fill="#277297" stroke="#277297"></path><path d="M436 318L288 274L435 387Z" fill="#081a28" stroke="#081a28"></path><path d="M381 488L493 509L435 387Z" fill="#277297" stroke="#277297"></path><path d="M515 260L391 177L436 318Z" fill="#246688" stroke="#246688"></path><path d="M567 404L611 306L515 260Z" fill="#246688" stroke="#246688"></path><path d="M515 260L527 175L391 177Z" fill="#00101c" stroke="#00101c"></path><path d="M288 274L266 434L435 387Z" fill="#00101c" stroke="#00101c"></path><path d="M628 224L527 175L515 260Z" fill="#112e42" stroke="#112e42"></path><path d="M266 434L266 476L381 488Z" fill="#15384f" stroke="#15384f"></path><path d="M365 600L496 600L493 509Z" fill="#1d4e6b" stroke="#1d4e6b"></path><path d="M391 177L295 191L288 274Z" fill="#277297" stroke="#277297"></path><path d="M179 302L232 438L266 434Z" fill="#15384f" stroke="#15384f"></path><path d="M179 302L266 434L288 274Z" fill="#00101c" stroke="#00101c"></path><path d="M266 434L232 438L266 476Z" fill="#0c2435" stroke="#0c2435"></path><path d="M611 306L628 224L515 260Z" fill="#00101c" stroke="#00101c"></path><path d="M493 509L628 487L567 404Z" fill="#15384f" stroke="#15384f"></path><path d="M567 404L683 316L611 306Z" fill="#1d4e6b" stroke="#1d4e6b"></path><path d="M611 306L683 316L628 224Z" fill="#00101c" stroke="#00101c"></path><path d="M733 401L683 316L567 404Z" fill="#205a7a" stroke="#205a7a"></path><path d="M365 600L493 509L381 488Z" fill="#205a7a" stroke="#205a7a"></path><path d="M493 509L636 600L628 487Z" fill="#15384f" stroke="#15384f"></path><path d="M321 600L381 488L266 476Z" fill="#1d4e6b" stroke="#1d4e6b"></path><path d="M321 600L365 600L381 488Z" fill="#0c2435" stroke="#0c2435"></path><path d="M226 190L179 302L288 274Z" fill="#081a28" stroke="#081a28"></path><path d="M295 191L226 190L288 274Z" fill="#246688" stroke="#246688"></path><path d="M203 130L226 190L295 191Z" fill="#297ea6" stroke="#297ea6"></path><path d="M237 600L321 600L266 476Z" fill="#0c2435" stroke="#0c2435"></path><path d="M512 71L436 74L527 175Z" fill="#081a28" stroke="#081a28"></path><path d="M527 175L436 74L391 177Z" fill="#246688" stroke="#246688"></path><path d="M391 177L306 84L295 191Z" fill="#112e42" stroke="#112e42"></path><path d="M623 73L512 71L527 175Z" fill="#15384f" stroke="#15384f"></path><path d="M436 74L306 84L391 177Z" fill="#277297" stroke="#277297"></path><path d="M628 487L733 401L567 404Z" fill="#15384f" stroke="#15384f"></path><path d="M735 493L733 401L628 487Z" fill="#0c2435" stroke="#0c2435"></path><path d="M95 486L179 525L232 438Z" fill="#15384f" stroke="#15384f"></path><path d="M232 438L179 525L266 476Z" fill="#205a7a" stroke="#205a7a"></path><path d="M683 316L720 224L628 224Z" fill="#15384f" stroke="#15384f"></path><path d="M628 224L623 73L527 175Z" fill="#246688" stroke="#246688"></path><path d="M816 280L720 224L683 316Z" fill="#246688" stroke="#246688"></path><path d="M179 525L237 600L266 476Z" fill="#205a7a" stroke="#205a7a"></path><path d="M496 600L636 600L493 509Z" fill="#1d4e6b" stroke="#1d4e6b"></path><path d="M306 84L203 130L295 191Z" fill="#277297" stroke="#277297"></path><path d="M105 229L107 307L179 302Z" fill="#081a28" stroke="#081a28"></path><path d="M105 229L179 302L226 190Z" fill="#112e42" stroke="#112e42"></path><path d="M179 302L71 403L232 438Z" fill="#081a28" stroke="#081a28"></path><path d="M704 600L735 493L628 487Z" fill="#112e42" stroke="#112e42"></path><path d="M691 127L623 73L628 224Z" fill="#15384f" stroke="#15384f"></path><path d="M720 224L691 127L628 224Z" fill="#15384f" stroke="#15384f"></path><path d="M203 130L105 229L226 190Z" fill="#15384f" stroke="#15384f"></path><path d="M205 0L124 79L203 130Z" fill="#15384f" stroke="#15384f"></path><path d="M436 74L385 0L306 84Z" fill="#205a7a" stroke="#205a7a"></path><path d="M516 0L385 0L436 74Z" fill="#205a7a" stroke="#205a7a"></path><path d="M516 0L436 74L512 71Z" fill="#297ea6" stroke="#297ea6"></path><path d="M575 0L516 0L512 71Z" fill="#0c2435" stroke="#0c2435"></path><path d="M71 403L95 486L232 438Z" fill="#19435d" stroke="#19435d"></path><path d="M179 525L115 600L237 600Z" fill="#15384f" stroke="#15384f"></path><path d="M71 403L179 302L107 307Z" fill="#19435d" stroke="#19435d"></path><path d="M636 600L704 600L628 487Z" fill="#15384f" stroke="#15384f"></path><path d="M0 409L71 403L0 280Z" fill="#0c2435" stroke="#0c2435"></path><path d="M385 0L331 0L306 84Z" fill="#15384f" stroke="#15384f"></path><path d="M203 130L124 79L105 229Z" fill="#297ea6" stroke="#297ea6"></path><path d="M623 73L575 0L512 71Z" fill="#297ea6" stroke="#297ea6"></path><path d="M735 0L575 0L623 73Z" fill="#112e42" stroke="#112e42"></path><path d="M828 411L816 280L733 401Z" fill="#112e42" stroke="#112e42"></path><path d="M733 401L816 280L683 316Z" fill="#277297" stroke="#277297"></path><path d="M720 224L811 119L691 127Z" fill="#246688" stroke="#246688"></path><path d="M828 411L733 401L735 493Z" fill="#19435d" stroke="#19435d"></path><path d="M704 600L786 533L735 493Z" fill="#081a28" stroke="#081a28"></path><path d="M786 533L828 411L735 493Z" fill="#1d4e6b" stroke="#1d4e6b"></path><path d="M0 600L115 600L95 486Z" fill="#112e42" stroke="#112e42"></path><path d="M95 486L115 600L179 525Z" fill="#277297" stroke="#277297"></path><path d="M816 280L823 215L720 224Z" fill="#19435d" stroke="#19435d"></path><path d="M691 127L735 0L623 73Z" fill="#246688" stroke="#246688"></path><path d="M900 276L823 215L816 280Z" fill="#277297" stroke="#277297"></path><path d="M205 0L203 130L306 84Z" fill="#297ea6" stroke="#297ea6"></path><path d="M0 280L71 403L107 307Z" fill="#00101c" stroke="#00101c"></path><path d="M331 0L205 0L306 84Z" fill="#205a7a" stroke="#205a7a"></path><path d="M704 600L795 600L786 533Z" fill="#19435d" stroke="#19435d"></path><path d="M900 515L900 414L828 411Z" fill="#112e42" stroke="#112e42"></path><path d="M0 280L107 307L105 229Z" fill="#00101c" stroke="#00101c"></path><path d="M71 403L0 485L95 486Z" fill="#081a28" stroke="#081a28"></path><path d="M0 175L0 280L105 229Z" fill="#297ea6" stroke="#297ea6"></path><path d="M823 215L811 119L720 224Z" fill="#297ea6" stroke="#297ea6"></path><path d="M0 409L0 485L71 403Z" fill="#246688" stroke="#246688"></path><path d="M811 119L735 0L691 127Z" fill="#19435d" stroke="#19435d"></path><path d="M124 79L0 175L105 229Z" fill="#00101c" stroke="#00101c"></path><path d="M0 68L0 175L124 79Z" fill="#205a7a" stroke="#205a7a"></path><path d="M900 515L828 411L786 533Z" fill="#277297" stroke="#277297"></path><path d="M828 411L900 276L816 280Z" fill="#297ea6" stroke="#297ea6"></path><path d="M823 215L900 188L811 119Z" fill="#19435d" stroke="#19435d"></path><path d="M900 414L900 276L828 411Z" fill="#246688" stroke="#246688"></path><path d="M900 81L772 0L811 119Z" fill="#246688" stroke="#246688"></path><path d="M811 119L772 0L735 0Z" fill="#15384f" stroke="#15384f"></path><path d="M900 600L900 515L786 533Z" fill="#00101c" stroke="#00101c"></path><path d="M900 276L900 188L823 215Z" fill="#0c2435" stroke="#0c2435"></path><path d="M0 485L0 600L95 486Z" fill="#1d4e6b" stroke="#1d4e6b"></path><path d="M205 0L72 0L124 79Z" fill="#19435d" stroke="#19435d"></path><path d="M72 0L0 68L124 79Z" fill="#00101c" stroke="#00101c"></path><path d="M795 600L900 600L786 533Z" fill="#297ea6" stroke="#297ea6"></path><path d="M900 188L900 81L811 119Z" fill="#277297" stroke="#277297"></path><path d="M72 0L0 0L0 68Z" fill="#15384f" stroke="#15384f"></path><path d="M900 81L900 0L772 0Z" fill="#205a7a" stroke="#205a7a"></path></g></svg>