<svg id="visual" viewBox="0 0 900 600" width="900" height="600" xmlns="http://www.w3.org/2000/svg" xmlns:xlink="http://www.w3.org/1999/xlink" version="1.1"><path d="M0 109L82 109L82 121L164 121L164 127L245 127L245 67L327 67L327 61L409 61L409 115L491 115L491 133L573 133L573 127L655 127L655 67L736 67L736 103L818 103L818 133L900 133L900 91L900 0L900 0L818 0L818 0L736 0L736 0L655 0L655 0L573 0L573 0L491 0L491 0L409 0L409 0L327 0L327 0L245 0L245 0L164 0L164 0L82 0L82 0L0 0Z" fill="#fa7268"></path><path d="M0 331L82 331L82 355L164 355L164 277L245 277L245 229L327 229L327 295L409 295L409 223L491 223L491 379L573 379L573 211L655 211L655 331L736 331L736 301L818 301L818 361L900 361L900 325L900 89L900 131L818 131L818 101L736 101L736 65L655 65L655 125L573 125L573 131L491 131L491 113L409 113L409 59L327 59L327 65L245 65L245 125L164 125L164 119L82 119L82 107L0 107Z" fill="#ea5e66"></path><path d="M0 451L82 451L82 421L164 421L164 379L245 379L245 271L327 271L327 367L409 367L409 331L491 331L491 445L573 445L573 325L655 325L655 373L736 373L736 361L818 361L818 415L900 415L900 409L900 323L900 359L818 359L818 299L736 299L736 329L655 329L655 209L573 209L573 377L491 377L491 221L409 221L409 293L327 293L327 227L245 227L245 275L164 275L164 353L82 353L82 329L0 329Z" fill="#d84a64"></path><path d="M0 547L82 547L82 517L164 517L164 529L245 529L245 505L327 505L327 553L409 553L409 499L491 499L491 553L573 553L573 547L655 547L655 547L736 547L736 565L818 565L818 505L900 505L900 517L900 407L900 413L818 413L818 359L736 359L736 371L655 371L655 323L573 323L573 443L491 443L491 329L409 329L409 365L327 365L327 269L245 269L245 377L164 377L164 419L82 419L82 449L0 449Z" fill="#c53762"></path><path d="M0 601L82 601L82 601L164 601L164 601L245 601L245 601L327 601L327 601L409 601L409 601L491 601L491 601L573 601L573 601L655 601L655 601L736 601L736 601L818 601L818 601L900 601L900 601L900 515L900 503L818 503L818 563L736 563L736 545L655 545L655 545L573 545L573 551L491 551L491 497L409 497L409 551L327 551L327 503L245 503L245 527L164 527L164 515L82 515L82 545L0 545Z" fill="#b0235f"></path></svg>