<svg id="visual" viewBox="0 0 900 600" width="900" height="600" xmlns="http://www.w3.org/2000/svg" xmlns:xlink="http://www.w3.org/1999/xlink" version="1.1"><rect x="0" y="0" width="900" height="600" fill="#002233"></rect><path d="M0 476L21.5 480C43 484 86 492 128.8 495.2C171.7 498.3 214.3 496.7 257.2 493.7C300 490.7 343 486.3 385.8 472.7C428.7 459 471.3 436 514.2 438.2C557 440.3 600 467.7 642.8 468.5C685.7 469.3 728.3 443.7 771.2 427.8C814 412 857 406 878.5 403L900 400L900 601L878.5 601C857 601 814 601 771.2 601C728.3 601 685.7 601 642.8 601C600 601 557 601 514.2 601C471.3 601 428.7 601 385.8 601C343 601 300 601 257.2 601C214.3 601 171.7 601 128.8 601C86 601 43 601 21.5 601L0 601Z" fill="#0066FF" stroke-linecap="round" stroke-linejoin="miter"></path></svg>